<?xml version="1.0" encoding="UTF-8"?>
<svg id="_图层_2" data-name="图层 2" xmlns="http://www.w3.org/2000/svg" viewBox="0 0 815 615">
  <defs>
    <style>
      .cls-1, .cls-2, .cls-3 {
        fill: none;
        stroke: #9fa0a0;
        stroke-miterlimit: 10;
      }

      .cls-2 {
        stroke-width: 36px;
      }

      .cls-4 {
        fill: #fff;
      }

      .cls-4, .cls-5 {
        stroke-width: 0px;
      }

      .cls-3 {
        stroke-width: 15px;
      }

      .cls-5 {
        fill: #9fa0a0;
      }
    </style>
  </defs>
  <g id="_图层_1-2" data-name="图层 1">
    <g>
      <path class="cls-3" d="m7.5,557.5c0,27.61,22.39,50,50,50h700c27.61,0,50-22.39,50-50V107.5H7.5v450Z"/>
      <g>
        <path class="cls-5" d="m757.5,7.5H57.5C29.89,7.5,7.5,29.89,7.5,57.5v50h800v-50c0-27.61-22.39-50-50-50ZM70.2,72.5c-8.28,0-15-6.72-15-15s6.72-15,15-15,15,6.72,15,15-6.72,15-15,15Zm57.95,0c-8.28,0-15-6.72-15-15s6.72-15,15-15,15,6.72,15,15-6.72,15-15,15Z"/>
        <path class="cls-3" d="m757.5,7.5H57.5C29.89,7.5,7.5,29.89,7.5,57.5v50h800v-50c0-27.61-22.39-50-50-50ZM70.2,72.5c-8.28,0-15-6.72-15-15s6.72-15,15-15,15,6.72,15,15-6.72,15-15,15Zm57.95,0c-8.28,0-15-6.72-15-15s6.72-15,15-15,15,6.72,15,15-6.72,15-15,15Z"/>
      </g>
      <g>
        <circle class="cls-4" cx="70.2" cy="57.5" r="15"/>
        <circle class="cls-1" cx="70.2" cy="57.5" r="15"/>
      </g>
      <g>
        <circle class="cls-4" cx="128.16" cy="57.5" r="15"/>
        <circle class="cls-1" cx="128.16" cy="57.5" r="15"/>
      </g>
      <g>
        <path class="cls-5" d="m258.86,410.92h-23.9v53.57h-47.81v-53.57h-89.85v-35.42l74.59-125.28h63.07v121.82h23.9v38.88Zm-71.71-38.88v-31.39c0-13.54,1.44-33.98,2.02-47.52h-1.15c-5.47,12.1-11.23,24.48-17.28,36.57l-24.48,42.33h40.9Z"/>
        <path class="cls-5" d="m297.49,356.35c0-73.73,44.72-110.01,110.96-110.01s111.38,36.86,111.38,110.01-45.14,112.32-111.38,112.32-110.96-38.59-110.96-112.32Zm182.73,0c0-58.46-32.22-70.56-71.94-70.56s-71.19,12.1-71.19,70.56,31.47,72.58,71.19,72.58,71.94-13.82,71.94-72.58Z"/>
      </g>
    </g>
    <path class="cls-5" d="m552.7,440.81l24.27-33.15c13.32,12.73,28.71,21.31,45.87,21.31,20.42,0,33.74-8.58,33.74-25.15,0-18.94-10.06-30.19-56.23-30.19v-36.99c37.59,0,49.42-11.54,49.42-29,0-15.09-8.88-23.38-25.15-23.38-14.8,0-26.04,6.81-39.36,18.35l-26.63-32.26c20.42-17.16,42.32-27.23,68.36-27.23,45.57,0,75.47,21.31,75.47,60.67,0,21.9-11.84,39.06-35.51,48.53v1.48c24.56,7.4,42.62,25.15,42.62,53.57,0,41.14-37.58,64.22-81.38,64.22-34.92,0-59.48-12.13-75.46-30.78Z"/>
    <line class="cls-2" x1="337.16" y1="427.84" x2="477.84" y2="287.16"/>
  </g>
</svg>