<?xml version="1.0" encoding="UTF-8"?>
<svg id="_图层_2" data-name="图层 2" xmlns="http://www.w3.org/2000/svg" viewBox="0 0 815 615">
  <defs>
    <style>
      .cls-1 {
        stroke-dasharray: 0 0 12.38 12.38;
      }

      .cls-1, .cls-2 {
        stroke-width: 5px;
      }

      .cls-1, .cls-2, .cls-3, .cls-4 {
        fill: none;
        stroke: #9fa0a0;
        stroke-miterlimit: 10;
      }

      .cls-2 {
        stroke-dasharray: 0 0 11.9 11.9;
      }

      .cls-5 {
        fill: #fff;
      }

      .cls-5, .cls-6 {
        stroke-width: 0px;
      }

      .cls-4 {
        stroke-width: 15px;
      }

      .cls-6 {
        fill: #9fa0a0;
      }
    </style>
  </defs>
  <g id="_图层_1-2" data-name="图层 1">
    <g>
      <path class="cls-4" d="m7.5,557.5c0,27.61,22.39,50,50,50h700c27.61,0,50-22.39,50-50V107.5H7.5v450Z"/>
      <g>
        <path class="cls-6" d="m757.5,7.5H57.5C29.89,7.5,7.5,29.89,7.5,57.5v50h800v-50c0-27.61-22.39-50-50-50ZM70.2,72.5c-8.28,0-15-6.72-15-15s6.72-15,15-15,15,6.72,15,15-6.72,15-15,15Zm57.95,0c-8.28,0-15-6.72-15-15s6.72-15,15-15,15,6.72,15,15-6.72,15-15,15Z"/>
        <path class="cls-4" d="m757.5,7.5H57.5C29.89,7.5,7.5,29.89,7.5,57.5v50h800v-50c0-27.61-22.39-50-50-50ZM70.2,72.5c-8.28,0-15-6.72-15-15s6.72-15,15-15,15,6.72,15,15-6.72,15-15,15Zm57.95,0c-8.28,0-15-6.72-15-15s6.72-15,15-15,15,6.72,15,15-6.72,15-15,15Z"/>
      </g>
      <g>
        <circle class="cls-5" cx="70.2" cy="57.5" r="15"/>
        <circle class="cls-3" cx="70.2" cy="57.5" r="15"/>
      </g>
      <g>
        <circle class="cls-5" cx="128.16" cy="57.5" r="15"/>
        <circle class="cls-3" cx="128.16" cy="57.5" r="15"/>
      </g>
      <g>
        <path class="cls-6" d="m258.86,410.92h-23.9v53.57h-47.81v-53.57h-89.85v-35.42l74.59-125.28h63.07v121.82h23.9v38.88Zm-71.71-38.88v-31.39c0-13.54,1.44-33.98,2.02-47.52h-1.15c-5.47,12.1-11.23,24.48-17.28,36.57l-24.48,42.33h40.9Z"/>
        <g>
          <path class="cls-2" d="m297.49,356.35c0-73.73,44.72-110.01,110.96-110.01s111.38,36.86,111.38,110.01-45.14,112.32-111.38,112.32-110.96-38.59-110.96-112.32Z"/>
          <path class="cls-1" d="m448.94,356.35c0-58.46-18.14-70.56-40.5-70.56s-40.08,12.1-40.08,70.56,17.72,72.58,40.08,72.58,40.5-13.82,40.5-72.58Z"/>
        </g>
        <path class="cls-6" d="m713.21,410.92h-23.9v53.57h-47.81v-53.57h-89.85v-35.42l74.59-125.28h63.07v121.82h23.9v38.88Zm-71.71-38.88v-31.39c0-13.54,1.44-33.98,2.02-47.52h-1.15c-5.47,12.1-11.23,24.48-17.28,36.57l-24.48,42.33h40.9Z"/>
      </g>
    </g>
  </g>
</svg>