<?xml version="1.0" encoding="UTF-8"?>
<svg xmlns="http://www.w3.org/2000/svg" xmlns:xlink="http://www.w3.org/1999/xlink" viewBox="0 0 600.79 787.4">
  <defs>
    <linearGradient id="gas_bg" x1="300.4" y1="18.73" x2="300.4" y2="785.5" gradientUnits="userSpaceOnUse">
      <stop offset="0" stop-color="#646cff" />
      <stop offset=".37" stop-color="#648cff" />
      <stop offset=".77" stop-color="#64aaff" />
      <stop offset=".99" stop-color="#64b5ff" />
    </linearGradient>
    <linearGradient id="flash_bg" x1="306.75" y1="186.25" x2="313.45" y2="757.15" gradientUnits="userSpaceOnUse">
      <stop offset="0" stop-color="#e3be02" />
      <stop offset=".05" stop-color="#e3b702" />
      <stop offset=".48" stop-color="#e38802" />
      <stop offset=".81" stop-color="#e36a02" />
      <stop offset="1" stop-color="#e36002" />
    </linearGradient>
  </defs>
  <g>
    <path fill="url(#gas_bg)"
      d="m304.19,0c85.75,99.47,163.43,205.64,232.29,317.47,21.71,37.16,39.59,76.07,53.69,116.78,29.36,115.61-2.13,210.97-94.53,286.07-89.4,62.89-187.52,81.55-294.22,56.01C86.29,740.63,19.72,663.2,1.74,544.05c-4.41-37.02-.4-74.55,11.73-109.8,17.35-44,38.28-85.96,62.99-126.03l70.07-102.77C199.54,137.32,252.1,68.83,304.19,0Z" />
    <path fill="url(#flash_bg)" stroke="#fff" stroke-width="20px"
      d="m161.58,482.7l13.78-248.69c.23-4,2.96-7.33,6.65-8.1l224.26-46.91c4.46-.94,8.79,2.17,9.67,6.93.25,1.37.19,2.79-.17,4.13l-41.93,155.21c-1.26,4.67,1.27,9.54,5.64,10.88,1.25.38,2.56.45,3.83.18l64.27-13.21c4.46-.93,8.79,2.18,9.66,6.94.35,1.91.09,3.9-.73,5.64l-182.76,389.24-3.31,5.46c-1.45,2.51-4.02,4.04-6.78,4.02-4.76,0-9.42-4.37-8.21-10.6l29.47-152.28c.92-4.75-1.94-9.41-6.4-10.39-1.34-.3-2.73-.23-4.05.19l-38.57,12.5c-4.35,1.42-8.95-1.2-10.28-5.85-.4-1.4-.47-2.89-.19-4.32l18.57-96.95c.92-4.75-1.94-9.41-6.39-10.39-1.18-.26-2.4-.24-3.57.05l-62.44,15.4c-4.43,1.09-8.85-1.87-9.87-6.6-.17-.81-.24-1.65-.2-2.48h.03Z" />
  </g>
</svg>